HIERARCHY
ROOT Hips
{
	OFFSET -3.958830 18.904000 13.208200
	CHANNELS 6 Xposition Yposition Zposition Zrotation Yrotation Xrotation 
	JOINT LHipJoint
	{
		OFFSET 0.000000 0.000000 0.000000
		CHANNELS 3 Zrotation Yrotation Xrotation
		JOINT LeftUpLeg
		{
			OFFSET 1.800000 -1.400000 0.085000
			CHANNELS 3 Zrotation Yrotation Xrotation
			JOINT LeftLeg
			{
				OFFSET 2.215000 -6.000000 0.000000
				CHANNELS 3 Zrotation Yrotation Xrotation
				JOINT LeftFoot
				{
					OFFSET 2.500000 -6.900000 0.000000
					CHANNELS 3 Zrotation Yrotation Xrotation
					JOINT LeftToeBase
					{
						OFFSET 0.200000 -0.500000 1.950000
						CHANNELS 3 Zrotation Yrotation Xrotation
						End Site
						{
							OFFSET 0.000000 0.000000 0.000000
						}
					}
				}
			}
		}
	}
	JOINT RHipJoint
	{
		OFFSET 0.000000 0.000000 0.000000
		CHANNELS 3 Zrotation Yrotation Xrotation
		JOINT RightUpLeg
		{
			OFFSET -1.800000 -1.400000 0.085000
			CHANNELS 3 Zrotation Yrotation Xrotation
			JOINT RightLeg
			{
				OFFSET -2.215000 -6.000000 0.000000
				CHANNELS 3 Zrotation Yrotation Xrotation
				JOINT RightFoot
				{
					OFFSET -2.500000 -6.900000 0.000000
					CHANNELS 3 Zrotation Yrotation Xrotation
					JOINT RightToeBase
					{
						OFFSET -0.200000 -0.500000 1.950000
						CHANNELS 3 Zrotation Yrotation Xrotation
						End Site
						{
							OFFSET 0.000000 0.000000 0.000000
						}
					}
				}
			}
		}
	}
	JOINT LowerBack
	{
		OFFSET 0.000000 0.000000 0.000000
		CHANNELS 3 Zrotation Yrotation Xrotation
		JOINT Spine
		{
			OFFSET -0.087000 1.940000 -0.288900
			CHANNELS 3 Zrotation Yrotation Xrotation
			JOINT Spine1
			{
				OFFSET 0.000000 1.950000 0.060000
				CHANNELS 3 Zrotation Yrotation Xrotation
				JOINT Neck
				{
					OFFSET 0.000000 0.000000 0.000000
					CHANNELS 3 Zrotation Yrotation Xrotation
					JOINT Neck1
					{
						OFFSET 0.000000 1.600000 0.340000
						CHANNELS 3 Zrotation Yrotation Xrotation
						JOINT Head
						{
							OFFSET 0.000000 1.667000 -0.240000
							CHANNELS 3 Zrotation Yrotation Xrotation
							End Site
							{
								OFFSET 0.000000 0.000000 0.000000
							}
						}
					}
				}
				JOINT LeftShoulder
				{
					OFFSET 0.000000 0.000000 0.000000
					CHANNELS 3 Zrotation Yrotation Xrotation
					JOINT LeftArm
					{
						OFFSET 2.700000 1.550000 -0.730000
						CHANNELS 3 Zrotation Yrotation Xrotation
						JOINT LeftForeArm
						{
							OFFSET 5.450000 0.000000 0.000000
							CHANNELS 3 Zrotation Yrotation Xrotation
							JOINT LeftHand
							{
								OFFSET 3.450000 0.000000 0.000000
								CHANNELS 3 Zrotation Yrotation Xrotation
								JOINT LeftHandIndex1
								{
									OFFSET 0.750000 0.000000 0.000000
									CHANNELS 3 Zrotation Yrotation Xrotation
									End Site
									{
										OFFSET 0.000000 0.000000 0.000000
									}
								}
							}
						}
					}
				}
				JOINT RightShoulder
				{
					OFFSET 0.000000 0.000000 0.000000
					CHANNELS 3 Zrotation Yrotation Xrotation
					JOINT RightArm
					{
						OFFSET -2.700000 1.550000 -0.730000
						CHANNELS 3 Zrotation Yrotation Xrotation
						JOINT RightForeArm
						{
							OFFSET -5.450000 0.000000 0.000000
							CHANNELS 3 Zrotation Yrotation Xrotation
							JOINT RightHand
							{
								OFFSET -3.450000 0.000000 0.000000
								CHANNELS 3 Zrotation Yrotation Xrotation
								JOINT RightHandIndex1
								{
									OFFSET -0.750000 0.000000 0.000000
									CHANNELS 3 Zrotation Yrotation Xrotation
									End Site
									{
										OFFSET 0.000000 0.000000 0.000000
									}
								}
							}
						}
					}
				}
			}
		}
	}
}
MOTION
Frames: 7
Frame Time: 0.016667
2.117170 17.875250 -3.269860 -0.645171 -24.351844 8.350336 -14.946187 13.054306 3.968864 -5.390733 -2.441002 -15.067790 -6.110722 2.520561 -5.257337 -0.175426 2.547856 3.752840 0.065950 0.020580 0.013070 18.436825 -10.614800 3.143132 -0.316537 -1.408032 -0.464259 6.198768 -4.668164 5.828151 -0.468807 -3.709166 3.172723 -0.056340 0.132950 0.089040 -3.886140 -2.238786 -8.281474 14.253534 0.371305 13.000643 -9.912226 3.931779 -6.290438 3.157277 -8.096652 -16.251463 -21.148587 12.943135 42.900056 -0.833640 8.223810 -3.517660 -9.694088 -7.920572 4.583664 11.092091 6.368696 0.067204 7.886101 2.785021 -0.344841 -3.982692 2.631664 0.324250 0.002900 0.107890 0.082560 4.658193 16.594863 11.600562 -5.119735 2.204077 -0.437472 -3.687498 -2.678853 0.139175 2.923603 -0.853581 -0.077870 0.155140 0.051120 -0.030870 
2.168710 17.905580 -3.336070 -1.003886 -26.139470 7.509209 -14.916943 13.086790 3.902787 -4.195067 -2.210464 -14.278123 -5.342770 2.496651 -5.382715 -0.151417 2.591425 3.732122 0.086180 0.081230 0.003760 18.449841 -10.684236 3.180101 -0.183460 -1.523006 0.040487 5.144702 -4.471981 5.448670 -0.470809 -3.755710 3.136322 -0.010700 0.155010 0.110370 -3.928183 -2.120152 -8.225543 14.782235 -0.374887 15.341439 -11.006003 3.812280 -6.700218 2.938899 -8.332303 -16.402663 -20.520743 13.709747 41.026894 -0.618390 9.275630 -3.565900 -6.156593 -6.583579 4.877684 6.941863 5.380536 0.030233 9.272630 2.358121 -0.191018 -4.061164 2.668016 0.254480 0.039430 0.093420 0.088920 1.551156 15.933206 11.411449 -1.405102 5.120291 0.018451 -5.030615 -2.906458 0.151040 2.946940 -0.907797 -0.051510 0.139070 0.045630 -0.005510 
2.202190 17.920190 -3.400570 -0.831371 -27.696364 6.807688 -14.918518 13.090019 3.854658 -3.052047 -2.046925 -13.741433 -5.550190 2.555601 -5.331202 -0.130024 2.686084 3.712381 0.091110 0.099640 -0.006970 18.441396 -10.727862 3.187451 -0.222795 -1.581644 0.282040 4.074135 -4.275842 5.047132 -0.460844 -3.779255 3.129213 0.011900 0.185510 0.122060 -3.899234 -2.031534 -8.189786 13.804844 -0.452404 16.624337 -10.769782 3.851888 -5.657530 2.794785 -8.421958 -16.685502 -19.947758 13.811020 39.095464 -0.758110 9.750700 -3.267270 -3.865010 -6.281488 5.345439 3.753085 4.447783 -0.068918 10.918735 3.264388 -0.036928 -4.132619 2.692925 0.211430 0.074440 0.070820 0.103490 -0.323304 15.934395 11.538656 0.452579 6.049065 0.233725 -5.905918 -3.341177 0.150786 2.959603 -0.954307 -0.049140 0.134690 0.039250 0.008050 
2.235870 17.915390 -3.444360 -0.577961 -28.617005 6.689320 -14.909739 13.051533 3.791724 -2.074206 -1.963259 -13.672571 -5.865568 2.621824 -4.994123 -0.135646 2.758510 3.700421 0.084530 0.099350 -0.030820 18.452114 -10.769449 3.174429 -0.591935 -1.530296 0.081730 4.130041 -4.263043 4.827863 -0.440148 -3.821370 3.125377 0.026220 0.228210 0.132960 -3.933074 -1.891986 -8.119016 13.084089 -0.326726 16.533852 -10.564587 3.949592 -3.926569 2.512426 -8.419557 -16.650530 -19.191651 13.525288 36.703115 -0.808960 9.789960 -3.255570 -2.584489 -6.421977 5.635834 2.693180 3.670633 -0.072303 11.286232 3.838737 -0.020692 -4.192642 2.713397 0.177060 0.114900 0.037530 0.115090 -1.030597 15.910074 11.573896 1.202716 6.203600 0.345856 -5.924794 -4.248709 0.142666 2.964746 -0.984633 -0.056420 0.139160 0.048280 0.018140 
2.274040 17.917490 -3.468990 -0.690772 -29.229316 7.106612 -14.907982 13.015014 3.742567 -0.790835 -1.847329 -13.670913 -6.683589 2.722292 -4.962273 -0.133020 2.884148 3.675344 0.061370 0.080530 -0.054390 18.464541 -10.742837 3.166375 -0.665417 -1.462976 -0.298778 4.447528 -4.226582 4.344090 -0.416399 -3.815787 3.142995 0.031500 0.267340 0.122050 -3.974587 -1.866771 -8.059336 13.252804 -0.345495 15.681336 -10.495037 3.948178 -2.489534 2.427929 -8.594205 -16.571891 -19.286992 13.502012 35.210405 -1.117660 9.899880 -3.078570 -2.833106 -6.901001 5.802918 3.076148 3.587976 -0.014620 10.922114 3.912981 -0.062447 -4.214332 2.703057 0.159150 0.143980 0.008830 0.121510 -0.626682 16.235555 11.548289 0.101549 6.211419 0.309276 -5.230735 -5.447527 0.111715 2.980827 -0.971419 -0.081750 0.165780 0.061050 0.021700 
2.302660 17.942200 -3.489750 -0.502489 -30.025123 7.556905 -14.909427 13.052196 3.726227 -0.048607 -1.844233 -13.895270 -6.878122 2.778721 -4.536541 -0.133435 2.883271 3.672856 0.088480 0.108620 -0.021220 18.449825 -10.747939 3.151487 -1.122317 -1.309769 -0.994577 4.666064 -4.169734 4.197945 -0.415575 -3.731609 3.169859 0.042540 0.237190 0.110070 -3.940445 -1.902817 -8.050096 12.667775 -0.084288 15.236926 -9.999941 3.931092 -3.103418 2.361127 -8.846976 -16.292242 -20.018973 13.495113 35.169762 -1.473550 9.903640 -4.008030 -4.426273 -7.209205 5.473148 5.083317 3.647585 0.008580 9.876106 3.451377 -0.155518 -4.156764 2.693114 0.180980 0.116630 0.034470 0.127330 1.142895 16.579713 11.421852 -2.075066 5.801088 0.173990 -4.191445 -5.512493 0.025984 2.983315 -0.953432 -0.079930 0.174890 0.035350 0.014940 
2.324910 17.956110 -3.492050 0.091945 -29.701131 8.393619 -14.927919 13.055964 3.713934 0.271142 -1.955969 -14.441684 -7.205576 2.817035 -4.183489 -0.149521 2.869216 3.667727 0.090470 0.091530 -0.002780 18.437705 -10.679613 3.129596 -1.825529 -1.080027 -1.934178 5.475826 -4.122091 3.500832 -0.408937 -3.628235 3.201051 0.026390 0.202960 0.091360 -3.909571 -2.031285 -8.035933 11.970965 0.250000 13.365190 -9.429880 3.737910 -3.123450 2.358284 -9.131492 -15.952483 -21.389019 13.537022 35.627797 -1.299850 9.484020 -4.734840 -7.044793 -7.994353 5.028703 8.230249 3.586920 -0.056282 8.959191 2.729341 -0.270597 -4.064884 2.690815 0.231750 0.072350 0.056250 0.116900 3.797913 17.049011 11.360339 -4.826908 4.388561 -0.221052 -3.476506 -5.554771 -0.007464 2.980325 -0.925447 -0.091310 0.182570 0.033360 -0.002350 
